<mxfile host="app.diagrams.net" modified="2020-08-28T13:25:24.955Z" agent="5.0 (Windows)" etag="Oz5CT9kg8Nsad0Eg5ytw" version="13.6.5" type="github">
  <diagram id="xhxy66agqm1pkdz-doPL" name="Page-1">
    <mxGraphModel dx="1038" dy="547" grid="1" gridSize="10" guides="1" tooltips="1" connect="1" arrows="1" fold="1" page="1" pageScale="1" pageWidth="1169" pageHeight="827" math="0" shadow="0">
      <root>
        <mxCell id="0" />
        <mxCell id="1" parent="0" />
        <mxCell id="ssrghCyACO7vTCk4HD_B-1" value="Transport Requisition" style="swimlane;html=1;childLayout=stackLayout;resizeParent=1;resizeParentMax=0;horizontal=1;startSize=20;horizontalStack=0;" vertex="1" parent="1">
          <mxGeometry x="30" y="90" width="980" height="440" as="geometry" />
        </mxCell>
        <mxCell id="ssrghCyACO7vTCk4HD_B-2" value="Officer" style="swimlane;html=1;startSize=20;horizontal=0;" vertex="1" parent="ssrghCyACO7vTCk4HD_B-1">
          <mxGeometry y="20" width="980" height="180" as="geometry" />
        </mxCell>
        <mxCell id="ssrghCyACO7vTCk4HD_B-5" value="Start" style="rounded=1;whiteSpace=wrap;html=1;" vertex="1" parent="ssrghCyACO7vTCk4HD_B-2">
          <mxGeometry x="110" y="20" width="100" height="40" as="geometry" />
        </mxCell>
        <mxCell id="ssrghCyACO7vTCk4HD_B-17" value="End" style="rounded=1;whiteSpace=wrap;html=1;" vertex="1" parent="ssrghCyACO7vTCk4HD_B-2">
          <mxGeometry x="640" y="90" width="120" height="40" as="geometry" />
        </mxCell>
        <mxCell id="ssrghCyACO7vTCk4HD_B-6" value="Fill in transport request form" style="rounded=0;whiteSpace=wrap;html=1;" vertex="1" parent="ssrghCyACO7vTCk4HD_B-2">
          <mxGeometry x="100" y="100" width="120" height="60" as="geometry" />
        </mxCell>
        <mxCell id="ssrghCyACO7vTCk4HD_B-7" value="" style="endArrow=classic;html=1;exitX=0.5;exitY=1;exitDx=0;exitDy=0;" edge="1" parent="ssrghCyACO7vTCk4HD_B-2" source="ssrghCyACO7vTCk4HD_B-5" target="ssrghCyACO7vTCk4HD_B-6">
          <mxGeometry width="50" height="50" relative="1" as="geometry">
            <mxPoint x="470" y="160" as="sourcePoint" />
            <mxPoint x="520" y="110" as="targetPoint" />
          </mxGeometry>
        </mxCell>
        <mxCell id="ssrghCyACO7vTCk4HD_B-3" value="HRM" style="swimlane;html=1;startSize=20;horizontal=0;" vertex="1" parent="ssrghCyACO7vTCk4HD_B-1">
          <mxGeometry y="200" width="980" height="120" as="geometry" />
        </mxCell>
        <mxCell id="ssrghCyACO7vTCk4HD_B-12" value="Approved?" style="rhombus;whiteSpace=wrap;html=1;rounded=0;" vertex="1" parent="ssrghCyACO7vTCk4HD_B-3">
          <mxGeometry x="320" y="20" width="80" height="80" as="geometry" />
        </mxCell>
        <mxCell id="ssrghCyACO7vTCk4HD_B-8" value="Receive and assign to admin officer" style="whiteSpace=wrap;html=1;rounded=0;" vertex="1" parent="ssrghCyACO7vTCk4HD_B-3">
          <mxGeometry x="100" y="40" width="120" height="60" as="geometry" />
        </mxCell>
        <mxCell id="ssrghCyACO7vTCk4HD_B-15" value="" style="edgeStyle=orthogonalEdgeStyle;rounded=0;orthogonalLoop=1;jettySize=auto;html=1;" edge="1" parent="ssrghCyACO7vTCk4HD_B-3" source="ssrghCyACO7vTCk4HD_B-12">
          <mxGeometry relative="1" as="geometry">
            <mxPoint x="480" y="60" as="targetPoint" />
          </mxGeometry>
        </mxCell>
        <mxCell id="ssrghCyACO7vTCk4HD_B-16" value="Communicating to the requesting officer" style="shape=callout;whiteSpace=wrap;html=1;perimeter=calloutPerimeter;" vertex="1" parent="ssrghCyACO7vTCk4HD_B-3">
          <mxGeometry x="480" y="30" width="120" height="80" as="geometry" />
        </mxCell>
        <mxCell id="ssrghCyACO7vTCk4HD_B-4" value="Admin Officer" style="swimlane;html=1;startSize=20;horizontal=0;" vertex="1" parent="ssrghCyACO7vTCk4HD_B-1">
          <mxGeometry y="320" width="980" height="120" as="geometry" />
        </mxCell>
        <mxCell id="ssrghCyACO7vTCk4HD_B-10" value="Identify vehicle and driver for assignment" style="whiteSpace=wrap;html=1;rounded=0;" vertex="1" parent="ssrghCyACO7vTCk4HD_B-4">
          <mxGeometry x="100" y="50" width="120" height="50" as="geometry" />
        </mxCell>
        <mxCell id="ssrghCyACO7vTCk4HD_B-9" value="" style="edgeStyle=orthogonalEdgeStyle;rounded=0;orthogonalLoop=1;jettySize=auto;html=1;" edge="1" parent="ssrghCyACO7vTCk4HD_B-1" source="ssrghCyACO7vTCk4HD_B-6" target="ssrghCyACO7vTCk4HD_B-8">
          <mxGeometry relative="1" as="geometry" />
        </mxCell>
        <mxCell id="ssrghCyACO7vTCk4HD_B-11" value="" style="edgeStyle=orthogonalEdgeStyle;rounded=0;orthogonalLoop=1;jettySize=auto;html=1;" edge="1" parent="ssrghCyACO7vTCk4HD_B-1" source="ssrghCyACO7vTCk4HD_B-8" target="ssrghCyACO7vTCk4HD_B-10">
          <mxGeometry relative="1" as="geometry" />
        </mxCell>
        <mxCell id="ssrghCyACO7vTCk4HD_B-13" value="" style="edgeStyle=orthogonalEdgeStyle;rounded=0;orthogonalLoop=1;jettySize=auto;html=1;" edge="1" parent="ssrghCyACO7vTCk4HD_B-1" source="ssrghCyACO7vTCk4HD_B-10" target="ssrghCyACO7vTCk4HD_B-12">
          <mxGeometry relative="1" as="geometry" />
        </mxCell>
        <mxCell id="ssrghCyACO7vTCk4HD_B-19" value="" style="edgeStyle=orthogonalEdgeStyle;rounded=0;orthogonalLoop=1;jettySize=auto;html=1;entryX=0.5;entryY=1;entryDx=0;entryDy=0;" edge="1" parent="ssrghCyACO7vTCk4HD_B-1" source="ssrghCyACO7vTCk4HD_B-16" target="ssrghCyACO7vTCk4HD_B-17">
          <mxGeometry relative="1" as="geometry">
            <mxPoint x="680" y="270" as="targetPoint" />
            <Array as="points">
              <mxPoint x="700" y="260" />
            </Array>
          </mxGeometry>
        </mxCell>
      </root>
    </mxGraphModel>
  </diagram>
</mxfile>
